<?xml version="1.0" encoding="iso-8859-1"?>
<!-- Generator: Adobe Illustrator 16.0.0, SVG Export Plug-In . SVG Version: 6.00 Build 0)  -->
<!DOCTYPE svg PUBLIC "-//W3C//DTD SVG 1.1//EN" "http://www.w3.org/Graphics/SVG/1.1/DTD/svg11.dtd">
<svg version="1.1" id="Capa_1" xmlns="http://www.w3.org/2000/svg" xmlns:xlink="http://www.w3.org/1999/xlink" x="0px" y="0px"
	 width="447.805px" height="447.804px" viewBox="0 0 447.805 447.804" style="enable-background:new 0 0 447.805 447.804;"
	 xml:space="preserve">
<g>
	<path d="M246.516,201.277c12.5,12.5,12.5,32.781,0,45.25c-12.5,12.5-32.75,12.5-45.25,0c-12.5-12.469-12.5-32.75,0-45.25
		S234.016,188.777,246.516,201.277z M291.766,156.027c-6.25-6.25-16.375-6.25-22.625,0s-6.25,16.375,0,22.625
		c12.094,12.063,18.75,28.156,18.75,45.25s-6.656,33.156-18.75,45.25c-6.25,6.25-6.25,16.375,0,22.625
		c3.125,3.125,7.219,4.688,11.312,4.688c4.095,0,8.188-1.562,11.313-4.688c18.124-18.125,28.124-42.219,28.124-67.875
		S309.891,174.152,291.766,156.027z M337.047,110.746c-6.25-6.25-16.375-6.25-22.625,0s-6.25,16.375,0,22.625
		c49.906,49.906,49.906,131.125,0,181.031c-6.25,6.25-6.25,16.375,0,22.625c3.125,3.125,7.219,4.688,11.312,4.688
		s8.188-1.562,11.313-4.688C399.422,274.652,399.422,173.152,337.047,110.746z M382.297,65.496c-6.25-6.25-16.375-6.25-22.625,0
		s-6.25,16.375,0,22.625c74.844,74.844,74.844,196.688,0,271.563c-6.25,6.25-6.25,16.375,0,22.625
		c3.125,3.125,7.219,4.688,11.312,4.688s8.188-1.562,11.313-4.688C469.641,294.933,469.641,152.84,382.297,65.496z M178.641,156.027
		c-6.25-6.25-16.375-6.25-22.625,0c-18.125,18.125-28.125,42.219-28.125,67.875s10,49.75,28.125,67.875
		c3.125,3.125,7.219,4.688,11.313,4.688s8.188-1.562,11.313-4.688c6.25-6.25,6.25-16.375,0-22.625
		c-12.095-12.094-18.751-28.156-18.751-45.25s6.656-33.188,18.75-45.25C184.891,172.402,184.891,162.277,178.641,156.027z
		 M133.36,133.371c6.25-6.25,6.25-16.375,0-22.625s-16.375-6.25-22.625,0c-62.375,62.406-62.375,163.906,0,226.281
		c3.125,3.125,7.219,4.688,11.313,4.688c4.094,0,8.188-1.562,11.313-4.688c6.25-6.25,6.25-16.375,0-22.625
		C83.454,264.496,83.454,183.277,133.36,133.371z M88.11,88.121c6.25-6.25,6.25-16.375,0-22.625s-16.375-6.25-22.625,0
		c-87.313,87.344-87.313,229.438,0,316.813c3.125,3.125,7.219,4.688,11.313,4.688c4.094,0,8.188-1.562,11.313-4.688
		c6.25-6.25,6.25-16.375,0-22.625C13.266,284.808,13.266,162.965,88.11,88.121z"/>
</g>
<g>
</g>
<g>
</g>
<g>
</g>
<g>
</g>
<g>
</g>
<g>
</g>
<g>
</g>
<g>
</g>
<g>
</g>
<g>
</g>
<g>
</g>
<g>
</g>
<g>
</g>
<g>
</g>
<g>
</g>
</svg>
