<svg height="321pt" viewBox="0 0 321.36371 321" width="321pt" xmlns="http://www.w3.org/2000/svg"><path d="m315.648438 273.03125c-17.71875-.019531-32.078126-14.378906-32.097657-32.097656 0-2.957032-2.398437-5.351563-5.351562-5.351563s-5.351563 2.394531-5.351563 5.351563c-.015625 17.71875-14.378906 32.078125-32.097656 32.097656-2.953125 0-5.351562 2.394531-5.351562 5.351562 0 2.953126 2.398437 5.347657 5.351562 5.347657 17.71875.019531 32.082031 14.378906 32.097656 32.101562 0 2.953125 2.398438 5.347657 5.351563 5.347657s5.351562-2.394532 5.351562-5.347657c.019531-17.722656 14.378907-32.082031 32.097657-32.101562 2.957031 0 5.351562-2.394531 5.351562-5.347657 0-2.957031-2.394531-5.351562-5.351562-5.351562zm-37.449219 22.125c-3.910157-7.050781-9.722657-12.863281-16.777344-16.773438 7.050781-3.914062 12.863281-9.726562 16.777344-16.777343 3.910156 7.050781 9.722656 12.863281 16.777343 16.777343-7.054687 3.910157-12.867187 9.722657-16.777343 16.773438zm0 0" fill="#fdbd40"/><path d="m304.949219 112.53125h-288.898438l-10.699219-107h310.296876zm0 0" fill="#7d8d9c"/><path d="m26.75 112.53125s-5.351562 160.5 133.75 160.5c139.097656 0 133.75-160.5 133.75-160.5zm0 0" fill="#cfdfe8"/><path d="m224.707031 238.152344c-2.957031.003906-5.355469-2.386719-5.359375-5.339844-.003906-1.695312.796875-3.289062 2.15625-4.300781 3.667969-2.738281 7.113282-5.765625 10.304688-9.050781 1.6875-1.742188 3.292968-3.535157 4.820312-5.382813 1.890625-2.269531 5.265625-2.574219 7.535156-.683594 2.257813 1.882813 2.574219 5.234375.707032 7.507813-1.707032 2.0625-3.503906 4.066406-5.386719 6.011718-3.585937 3.695313-7.460937 7.097657-11.589844 10.179688-.921875.6875-2.039062 1.058594-3.1875 1.058594zm0 0" fill="#7d8d9c"/><path d="m256.800781 196.886719c-2.953125.003906-5.347656-2.390625-5.347656-5.34375 0-.773438.164063-1.535157.488281-2.238281 7.753906-17.761719 12.648438-36.640626 14.5-55.933594.269532-2.90625 2.84375-5.042969 5.75-4.773438.042969.003906.085938.007813.128906.015625 2.9375.308594 5.070313 2.9375 4.761719 5.875-1.972656 20.449219-7.179687 40.457031-15.417969 59.277344-.871093 1.90625-2.773437 3.125-4.863281 3.121094zm0 0" fill="#7d8d9c"/><path d="m219.351562 192.78125c0 32.503906-26.347656 58.851562-58.851562 58.851562s-58.851562-26.347656-58.851562-58.851562c0-32.5 26.347656-58.851562 58.851562-58.851562s58.851562 26.351562 58.851562 58.851562zm0 0" fill="#394d5c"/><path d="m197.949219 192.78125c0 20.683594-16.765625 37.449219-37.449219 37.449219s-37.449219-16.765625-37.449219-37.449219 16.765625-37.449219 37.449219-37.449219 37.449219 16.765625 37.449219 37.449219zm0 0" fill="#7fcac9"/><path d="m181.898438 198.132812c-2.953126 0-5.347657-2.394531-5.347657-5.347656v-.003906c-.011719-8.859375-7.191406-16.039062-16.050781-16.050781-2.953125 0-5.351562-2.394531-5.351562-5.347657 0-2.957031 2.398437-5.351562 5.351562-5.351562 14.765625.015625 26.734375 11.984375 26.75 26.75 0 2.953125-2.394531 5.347656-5.347656 5.351562 0 0 0 0-.003906 0zm0 0" fill="#fff"/><g fill="#394d5c"><path d="m42.800781 53.683594h21.398438v10.699218h-21.398438zm0 0"/><path d="m74.898438 53.683594h21.402343v10.699218h-21.402343zm0 0"/><path d="m107 53.683594h21.398438v10.699218h-21.398438zm0 0"/><path d="m139.097656 53.683594h10.703125v10.699218h-10.703125zm0 0"/><path d="m171.199219 53.683594h10.699219v10.699218h-10.699219zm0 0"/><path d="m192.597656 53.683594h21.402344v10.699218h-21.402344zm0 0"/><path d="m224.699219 53.683594h16.050781v10.699218h-16.050781zm0 0"/><path d="m251.449219 53.683594h21.398437v10.699218h-21.398437zm0 0"/></g><path d="m315.648438 273.03125c-17.71875-.019531-32.078126-14.378906-32.097657-32.097656 0-2.957032-2.398437-5.351563-5.351562-5.351563s-5.351563 2.394531-5.351563 5.351563c-.015625 17.71875-14.378906 32.078125-32.097656 32.097656-2.953125 0-5.351562 2.394531-5.351562 5.351562 0 2.953126 2.398437 5.347657 5.351562 5.347657 17.71875.019531 32.082031 14.378906 32.097656 32.101562 0 2.953125 2.398438 5.347657 5.351563 5.347657s5.351562-2.394532 5.351562-5.347657c.019531-17.722656 14.378907-32.082031 32.097657-32.101562 2.957031 0 5.351562-2.394531 5.351562-5.347657 0-2.957031-2.394531-5.351562-5.351562-5.351562zm-37.449219 22.125c-3.910157-7.050781-9.722657-12.863281-16.777344-16.773438 7.050781-3.914062 12.863281-9.726562 16.777344-16.777343 3.910156 7.050781 9.722656 12.863281 16.777343 16.777343-7.054687 3.910157-12.867187 9.722657-16.777343 16.773438zm0 0"/><path d="m299.613281 117.882812h5.335938c2.746093-.003906 5.050781-2.085937 5.324219-4.820312l10.699218-106.996094c.292969-2.941406-1.855468-5.566406-4.796875-5.859375-.175781-.015625-.351562-.023437-.527343-.023437h-310.296876c-2.957031 0-5.35546825 2.398437-5.351562 5.355468 0 .175782.0078125.351563.0273438.527344l10.6992182 107c.273438 2.730469 2.574219 4.816406 5.324219 4.816406h5.335938c.296875 19.007813 4.425781 82.21875 44.601562 123.753907 23.582031 24.382812 55.378907 36.746093 94.511719 36.746093s70.929688-12.363281 94.511719-36.746093c40.175781-41.535157 44.300781-104.746094 44.601562-123.753907zm-278.722656-10.703124-9.628906-96.296876h298.476562l-9.628906 96.296876zm139.609375 160.5c-36.097656 0-65.296875-11.253907-86.785156-33.441407-36.945313-38.160156-41.175782-98.445312-41.59375-116.355469h256.761718c-.402343 17.886719-4.589843 78.085938-41.5625 116.3125-21.488281 22.222657-50.699218 33.484376-86.820312 33.484376zm0 0"/><path d="m236.628906 214.078125c-1.527344 1.84375-3.132812 3.636719-4.820312 5.378906-3.191406 3.289063-6.636719 6.316407-10.304688 9.054688-2.375 1.757812-2.875 5.105469-1.117187 7.480469 1.757812 2.375 5.105469 2.875 7.480469 1.117187.007812-.007813.019531-.011719.027343-.019531 4.125-3.078125 8-6.484375 11.585938-10.175782 1.886719-1.945312 3.683593-3.949218 5.390625-6.015624 1.875-2.28125 1.542968-5.65625-.738282-7.53125-2.273437-1.863282-5.625-1.546876-7.503906.710937zm0 0"/><path d="m272.320312 128.613281c-2.902343-.339843-5.527343 1.734375-5.867187 4.632813-.007813.042968-.011719.085937-.015625.125-1.847656 19.292968-6.742188 38.171875-14.496094 55.9375-1.234375 2.683594-.054687 5.859375 2.628906 7.089844 2.6875 1.234374 5.863282.054687 7.09375-2.628907 8.238282-18.820312 13.441407-38.828125 15.417969-59.28125.304688-2.933593-1.824219-5.566406-4.761719-5.875zm0 0"/><path d="m160.5 128.582031c-35.457031 0-64.199219 28.742188-64.199219 64.199219s28.742188 64.203125 64.199219 64.203125 64.199219-28.746094 64.199219-64.203125c-.039063-35.441406-28.757813-64.160156-64.199219-64.199219zm0 117.699219c-29.546875 0-53.5-23.953125-53.5-53.5s23.953125-53.5 53.5-53.5 53.5 23.953125 53.5 53.5c-.035156 29.535156-23.96875 53.464844-53.5 53.5zm0 0"/><path d="m160.5 149.980469c-23.636719 0-42.800781 19.164062-42.800781 42.800781s19.164062 42.800781 42.800781 42.800781 42.800781-19.164062 42.800781-42.800781c-.027343-23.625-19.175781-42.773438-42.800781-42.800781zm0 74.902343c-17.726562 0-32.097656-14.375-32.097656-32.101562s14.371094-32.097656 32.097656-32.097656 32.097656 14.371094 32.097656 32.097656c-.015625 17.722656-14.378906 32.082031-32.097656 32.101562zm0 0"/><path d="m160.5 166.03125c-2.953125 0-5.351562 2.394531-5.351562 5.351562 0 2.953126 2.398437 5.347657 5.351562 5.347657 8.859375.011719 16.039062 7.191406 16.050781 16.050781 0 2.953125 2.394531 5.351562 5.347657 5.351562 2.957031 0 5.351562-2.398437 5.351562-5.351562-.015625-14.765625-11.984375-26.734375-26.75-26.75zm0 0"/><path d="m42.800781 53.683594h21.398438v10.699218h-21.398438zm0 0"/><path d="m74.898438 53.683594h21.402343v10.699218h-21.402343zm0 0"/><path d="m107 53.683594h21.398438v10.699218h-21.398438zm0 0"/><path d="m139.097656 53.683594h10.703125v10.699218h-10.703125zm0 0"/><path d="m171.199219 53.683594h10.699219v10.699218h-10.699219zm0 0"/><path d="m192.597656 53.683594h21.402344v10.699218h-21.402344zm0 0"/><path d="m224.699219 53.683594h16.050781v10.699218h-16.050781zm0 0"/><path d="m251.449219 53.683594h21.398437v10.699218h-21.398437zm0 0"/></svg>