<?xml version="1.0" encoding="utf-8"?>
<!-- Generator: Adobe Illustrator 23.0.3, SVG Export Plug-In . SVG Version: 6.00 Build 0)  -->
<svg version="1.1" id="圖層_1" xmlns="http://www.w3.org/2000/svg" xmlns:xlink="http://www.w3.org/1999/xlink" x="0px" y="0px"
	 viewBox="0 0 477 343" style="enable-background:new 0 0 477 343;" xml:space="preserve">
<style type="text/css">
	.st0{fill:#F4AF47;}
	.st1{fill:#FFFFFF;}
	.st2{fill:none;stroke:#FFFFFF;stroke-width:3;stroke-miterlimit:10;}
</style>
<g>
	<path class="st0" d="M125.76,295.94c11.13,0,23.93,0.12,35.06,0.12c9.03,0,18.25,1.15,24.12-7.76c2.74-4.16,3.39-9.43,1.73-14.12
		c-2.3-6.53-6.45-6.89-12.11-7.01c-1.25-0.03-5.72,0.31-5.04-2.05c2.29-7.94,1.94-26.47-0.1-36.74c-1.43-7.19,3.32-14.82,6.77-21.02
		c3.68-6.62,8.03-12.87,11.28-19.72c3.65-7.67,6.95-16.58,6.76-25.19c-0.21-9.49-5.42-17.75-5.87-27.11
		c-0.85-17.84,18.34-30.36,22.53-47.72c1.66-6.87,0.78-14.33-2.43-20.63c-3.91-7.67-11.29-14.24-11.2-22.85
		c0.04-3.81,1.61-7.53,0.39-11.41c-0.54-1.71-1.79-3.17-3.5-3.7c-4.13-1.3-7.23,3.32-10.9,5.43c-2.96,1.7-6.55,1.75-9.97,1.76
		c-11.51,0.03-24.48-0.56-32.19-9.11c-3.36-3.72-5.24-8.52-8.08-12.66c-1.85-2.69-4.32-5.2-7.35-6.51c-3.27-1.41-4.8-0.93-7.01,1.63
		c-4.26,4.93-6.16,11.45-6.84,17.83c-0.78,7.37-0.16,14.84-0.85,22.22c-0.11,1.22-0.27,2.44-0.44,3.66
		c-1.32,9.3-3.99,18.59-2.33,27.78c1.12,6.18,4.17,12.11,3.75,18.37c-0.58,8.5-7.53,15.36-15.23,19c-7.7,3.64-16.28,4.87-24.43,7.32
		c-32.39,9.76-56.62,39.78-63.49,72.9c-3.62,17.44-2.77,35.61,1.5,52.85c2.15,8.69,5.17,17.15,8.93,25.27
		c9.8,21.16,33.7,33.99,54.19,43.5c24.58,11.41,52.78,13.65,79.43,10.49c19.23-2.28,37.79-7.85,56.97-10.15
		c6.95-0.83,13.98-1.5,20.98-1.03c5.75,0.38,14.47,0.74,17.9,6.29c1.57,2.55,1.56,5.79,2.93,8.45c2.31,4.48,8,5.83,12.39,3.6
		c2.63-1.34,4.6-3.92,5.19-6.81c1.11-5.44-2.26-11.42-6.13-15.02c-10.7-9.97-27.58-9.71-41.19-8.98
		c-25.83,1.4-50.63,9.34-76.33,11.65c-17.46,1.57-32.95-0.29-48.6-8.29c-7.02-3.59-5.6-14.55,2.88-14.53c0.12,0,0.25,0,0.37,0
		C108.2,295.92,117.8,295.96,125.76,295.94z"/>
</g>
<g>
	<path class="st1" d="M202.9,70.47c0.29,1.96,0.1,3.69-0.22,5.36l-0.13,0.62c-0.01,0.04-0.15,0.8-0.97,1.51
		c-0.41,0.31-0.64,0.4-0.69,0.45c-0.09,0.06-0.18,0.11-0.27,0.17l-0.53,0.33c-0.72,0.43-1.46,0.8-2.21,1.15
		c-1.51,0.69-3.09,1.22-4.76,1.57c-1.68,0.32-3.41,0.53-5.36,0.26l-0.12-0.27c2.97-1.5,6-2.85,8.99-4.28l2.27-1.01
		c0.35-0.16,0.81-0.35,1.08-0.49c0.14-0.15,0.33-0.64,0.5-0.99c0.69-1.51,1.4-3.01,2.13-4.5L202.9,70.47z"/>
</g>
<g>
	<path class="st1" d="M200.24,76.03c0.79-0.1,1.37,0.01,1.89,0.19c0.51,0.19,0.94,0.46,1.31,0.8c0.36,0.34,0.65,0.76,0.86,1.27
		c0.2,0.51,0.34,1.09,0.26,1.89c-0.79,0.11-1.38-0.01-1.9-0.19c-0.51-0.19-0.94-0.46-1.3-0.81c-0.36-0.35-0.65-0.77-0.86-1.27
		C200.3,77.4,200.17,76.82,200.24,76.03z"/>
</g>
<path class="st2" d="M195.71,65.21c0.01-0.04,0.03-0.07,0.06-0.1c0.68-0.83,1.58-1.54,2.63-1.8c1.14-0.28,2.39,0.25,3.41,0.76
	c0.79,0.39,1.56,0.84,2.15,1.49c0.65,0.71,1.15,1.81,0.97,2.8c-0.19,1.08-1.39,1.95-2.28,2.42c-0.05,0.03-0.1,0.05-0.15,0.04
	c-0.07-0.01-0.11-0.07-0.15-0.12c-0.74-0.97-1.43-1.95-2.37-2.74c-0.63-0.53-1.32-0.99-2.05-1.37c-0.73-0.38-1.48-0.68-2.12-1.22
	c-0.04-0.04-0.09-0.08-0.09-0.14C195.71,65.23,195.71,65.22,195.71,65.21z"/>
<g>
	<path class="st1" d="M157.18,51.94c2.06-1.35,4.51-2.02,6.96-2.33c2.46-0.28,4.96-0.16,7.39,0.34c2.43,0.5,4.8,1.37,6.94,2.65
		c2.12,1.29,4.07,3,5.23,5.17c-2.08-1.3-4.13-2.27-6.26-3.05c-2.13-0.78-4.3-1.38-6.51-1.84c-2.21-0.46-4.46-0.76-6.73-0.93
		C161.91,51.79,159.62,51.79,157.18,51.94z"/>
</g>
<g>
	<g>
		<path class="st0" d="M238.28,121.32c0-20.49,14.89-34.48,33.58-34.48c9.46,0,16.76,3.6,22.26,9.27c1.22,1.26,1.01,3.31-0.46,4.26
			l-0.03,0.02c-1.16,0.75-2.66,0.5-3.59-0.52c-4.32-4.76-10.89-7.84-18.18-7.84c-15.49,0-27.59,11.89-27.59,29.29
			c0,17.19,12.09,29.29,27.59,29.29c7.3,0,13.89-3.1,18.21-7.87c0.91-1.01,2.38-1.26,3.53-0.54l0,0c1.49,0.93,1.72,2.99,0.5,4.26
			c-5.6,5.8-12.77,9.35-22.24,9.35C253.17,155.8,238.28,141.81,238.28,121.32z"/>
		<path class="st0" d="M364.31,148.9c-4.3,4.7-9.69,6.9-16.39,6.9c-8.3,0-16.89-5.7-16.89-16.09c0-10.49,8.5-15.89,16.89-15.89
			c6.7,0,12.09,2.1,16.39,6.8v-9.8c0-7.1-5.8-11.09-12.99-11.09c-5.23,0-9.47,1.6-13.39,5.32c-0.96,0.91-2.47,0.85-3.31-0.16h0
			c-0.75-0.91-0.68-2.24,0.16-3.06c4.64-4.49,9.9-6.69,17.04-6.69c9.9,0,17.69,4.7,17.69,15.49V152c0,1.44-1.16,2.6-2.6,2.6h0
			c-1.44,0-2.6-1.16-2.6-2.6V148.9z M364.31,134.51c-3.4-4.4-8.8-6.7-14.59-6.7c-8,0-13.19,5.2-13.19,11.99
			c0,6.8,5.2,11.89,13.19,11.89c5.8,0,11.19-2.2,14.59-6.6V134.51z"/>
		<path class="st0" d="M412.58,145.31v-34.28h-5.65c-1.3,0-2.35-1.05-2.35-2.35v0c0-1.3,1.05-2.35,2.35-2.35h5.65V95.78
			c0-1.46,1.19-2.65,2.65-2.65l0,0c1.46,0,2.65,1.19,2.65,2.65v10.54l7.51,0c1.26,0,2.28,1.02,2.28,2.28v0.06
			c0,1.31-1.05,2.36-2.34,2.36c-2.9,0-7.45,0-7.45,0v33.48c0,3.9,1.6,6.6,5,6.6c1.33,0,2.56-0.37,3.57-0.91
			c1.1-0.59,2.46-0.12,3.02,0.99l0,0c0.5,1.01,0.19,2.25-0.75,2.87c-1.63,1.08-3.66,1.74-6.64,1.74
			C415.68,155.8,412.58,151.9,412.58,145.31z"/>
		<path class="st0" d="M243.37,207.87h0.5c1.44,0,2.6,1.16,2.6,2.6v56.27c0,1.44,1.16,2.6,2.6,2.6h27.09c1.44,0,2.6,1.16,2.6,2.6
			l0,0c0,1.44-1.16,2.6-2.6,2.6h-32.78c-1.44,0-2.6-1.16-2.6-2.6v-61.47C240.78,209.03,241.94,207.87,243.37,207.87z"/>
		<path class="st0" d="M315.43,214.07c0-2.2,1.9-4,4-4c2.2,0,4,1.8,4,4s-1.8,4-4,4C317.33,218.07,315.43,216.27,315.43,214.07z"/>
		<path class="st0" d="M319.43,226.26L319.43,226.26c1.44,0,2.6,1.16,2.6,2.6v43.08c0,1.44-1.16,2.6-2.6,2.6l0,0
			c-1.44,0-2.6-1.16-2.6-2.6v-43.08C316.83,227.43,318,226.26,319.43,226.26z"/>
		<path class="st0" d="M363.59,230.86h-3.56c-1.23,0-2.22-0.99-2.22-2.22v-0.16c0-1.23,0.99-2.22,2.22-2.22h3.56
			c0.61,0,1.33,0.07,1.93-0.04c0.17-0.03,0.15,0.01,0.23-0.15c0.1-0.19,0.06-0.59,0.07-0.81c0.06-1.13-0.02-2.27-0.02-3.4
			c0-9.5,5.1-14.99,13.09-14.99c1.47,0,2.87,0.15,4.17,0.52c0.95,0.27,1.7,1.1,1.71,2.08c0.02,1.57-1.42,2.61-2.78,2.23
			c-0.77-0.22-1.63-0.33-2.6-0.33c-5.5,0-8.4,3.8-8.4,10.5c0,0,0,2.18,0,2.18c0,0.52,0.01,1.03,0.08,1.54
			c0.09,0.75,1.58,0.68,2.14,0.68h5.35c1.23,0,2.22,0.99,2.22,2.22v0.16c0,1.23-0.99,2.22-2.22,2.22h-5.35
			c-0.62,0-1.33-0.04-1.94,0.08c-0.07,0.01-0.14,0.03-0.19,0.08c-0.14,0.13-0.08,0.45-0.08,0.63c-0.01,0.34-0.01,0.68-0.01,1.03
			c0,0.68-0.01,1.37-0.01,2.05c0,1.32,0.01,2.65,0.01,3.97c0,2.12,0,4.24,0,6.36c0,2.47,0,4.94,0,7.4c0,2.48,0,4.96,0,7.43
			c0,2.15,0,4.31,0,6.46c0,1.49,0,2.98,0,4.47v1.49c0,1.23-0.99,2.22-2.22,2.22h-0.76c-1.23,0-2.22-0.99-2.22-2.22v-1.61
			c0-1.42,0-2.83,0-4.25c0-2.01,0-4.03,0-6.04c0-2.33,0-4.65,0-6.98c0-2.36,0-4.71,0-7.07c0-2.1,0-4.2,0-6.3c0-1.56,0-3.13,0-4.69
			c0-1.29,0.03-2.57,0.06-3.86c0.01-0.19,0.05-0.55-0.16-0.66c-0.06-0.03-0.13-0.03-0.19-0.03
			C364.88,230.85,364.23,230.86,363.59,230.86z"/>
		<path class="st0" d="M436.97,225.01c6.71-0.01,13.42,3.09,17.52,8.41c2.17,2.82,3.59,6.15,4.39,9.61
			c0.54,2.32,0.76,4.65,0.84,7.01c0.03,1.1-0.84,2.01-1.94,2.01c-2.86,0-7.88,0-8.57,0c-0.68,0-1.36,0-2.04,0
			c-4.27,0-8.55,0-12.82,0c-4.27,0-8.55,0-12.82,0h0c-1.16,0-2.1,1.02-1.95,2.17c0.72,5.54,3.64,10.83,8.26,13.94
			c6.78,4.57,16.39,3.77,23.03-1.01c0.73-0.53,1.45-1.1,2.31-1.36c0.86-0.26,1.92-0.12,2.46,0.6c0.47,0.62,0.43,1.51,0.09,2.2
			c-0.34,0.7-0.93,1.24-1.53,1.72c-3.42,2.78-7.67,4.46-12.04,5.12c-6.45,0.97-13.33-0.34-18.61-4.16
			c-4.95-3.59-8.26-9.24-9.4-15.25c-0.72-3.79-0.61-7.71,0.18-11.48c0.4-1.89,0.96-3.75,1.68-5.54c0.6-1.49,1.48-2.91,2.41-4.21
			c1.87-2.59,4.27-4.79,6.99-6.46c2.68-1.63,5.69-2.74,8.8-3.15C435.14,225.07,436.05,225.01,436.97,225.01z M422.16,247.95h31.31
			c0.54,0,0.99-0.45,0.96-0.99c-0.51-8-5.94-17.4-17.55-17.4c-10.08,0-15.7,7.82-17.14,15.44
			C419.44,246.53,420.6,247.95,422.16,247.95z"/>
	</g>
</g>
<g>
	<g>
		<path class="st0" d="M345.12,144.28c0.03-1.11,0.4-1.86,1.02-2.44c0.75-0.7,1.33-1.51,1.93-2.32c1.31-1.8,3.04-1.77,4.29,0.1
			c0.53,0.8,1.1,1.56,1.8,2.23c0.52,0.49,0.86,1.12,1.01,1.83c0.3,1.47-0.94,2.81-2.41,2.61c-0.3-0.04-0.6-0.09-0.89-0.19
			c-1.17-0.41-2.31-0.38-3.49,0c-0.86,0.28-1.73,0.4-2.5-0.29C345.36,145.33,345.09,144.76,345.12,144.28z"/>
		<path class="st0" d="M353.93,134.96c-0.01,0.74-0.23,1.39-0.78,1.9c-0.82,0.76-1.87,0.5-2.24-0.56c-0.24-0.71-0.15-1.39,0.2-2.04
			c0.41-0.78,1.1-1.18,1.75-1.01C353.51,133.42,353.92,134.07,353.93,134.96z"/>
		<path class="st0" d="M349.68,135.45c-0.01,0.44-0.08,0.85-0.35,1.22c-0.46,0.65-1.23,0.76-1.86,0.26
			c-0.81-0.64-1.09-2.03-0.59-2.93c0.46-0.83,1.35-0.99,2.05-0.35C349.46,134.14,349.65,134.76,349.68,135.45z"/>
		<path class="st0" d="M353.51,138.8c-0.01-1.06,0.87-2.09,1.79-2.1c0.74-0.01,1.27,0.59,1.26,1.41c-0.01,1.04-0.92,2.08-1.83,2.08
			C354.04,140.19,353.51,139.59,353.51,138.8z"/>
		<path class="st0" d="M343.98,138.2c0.01-0.66,0.18-1.19,0.81-1.44c0.53-0.21,1.17,0.03,1.58,0.59c0.46,0.63,0.69,1.32,0.34,2.13
			c-0.32,0.73-1.03,0.93-1.71,0.52C344.32,139.58,344,138.95,343.98,138.2z"/>
	</g>
</g>
</svg>
