<svg height="512pt" viewBox="-53 0 512 512" width="512pt" xmlns="http://www.w3.org/2000/svg"><path d="m135.644531 136.664062h15.457031v30.222657h-15.457031zm0 0" fill="#e4e3e1"/><path d="m250.449219 136.664062h15.453125v30.222657h-15.453125zm0 0" fill="#e4e3e1"/><path d="m282.148438 145.59375h-159.089844c-6.601563 0-12-5.402344-12-12v-121.59375c0-6.601562 5.398437-12 12-12h159.089844c6.601562 0 12 5.398438 12 12v121.59375c0 6.597656-5.398438 12-12 12zm0 0" fill="#ffc964"/><path d="m131.691406 133.230469v-120.867188c0-6.800781 5.5625-12.363281 12.363282-12.363281h-20.632813c-6.800781 0-12.363281 5.5625-12.363281 12.363281v120.867188c0 6.800781 5.5625 12.363281 12.363281 12.363281h20.632813c-6.800782 0-12.363282-5.5625-12.363282-12.363281zm0 0" fill="#f3a334"/><path d="m365.949219 162.917969c-7.433594 0-317.03125 0-326.691407 0-5.671874 0-10.3125 4.640625-10.3125 10.3125v17.128906h347.320313v-17.128906c0-5.671875-4.644531-10.3125-10.316406-10.3125zm0 0" fill="#b4e1f9"/><path d="m59.863281 162.917969c-11.78125 0-19.230469 0-20.605469 0-5.671874 0-10.3125 4.640625-10.3125 10.3125v17.128906h20.605469v-17.128906c0-5.671875 4.640625-10.3125 10.3125-10.3125zm0 0" fill="#72bdf6"/><path d="m369.933594 302.167969c-12.4375 0-22.613282-10.175781-22.613282-22.613281 0 12.4375-10.175781 22.613281-22.609374 22.613281h-12.664063c-12.4375 0-22.613281-10.175781-22.613281-22.613281 0 12.4375-10.175782 22.613281-22.613282 22.613281h-12.660156c-12.4375 0-22.613281-10.175781-22.613281-22.613281 0 12.4375-10.175781 22.613281-22.613281 22.613281h-12.660156c-12.4375 0-22.613282-10.175781-22.613282-22.613281 0 12.4375-10.175781 22.613281-22.613281 22.613281h-12.660156c-12.4375 0-22.613281-10.175781-22.613281-22.613281 0 12.4375-10.175782 22.613281-22.613282 22.613281h-12.664062c-12.433594 0-22.609375-10.175781-22.609375-22.613281 0 12.4375-10.175781 22.613281-22.613281 22.613281h-6.328126v189.148437h347.320313v-189.148437zm0 0" fill="#e4e3e1"/><path d="m49.550781 297.058594c-7.074219 5.78125-13.527343 5.109375-20.605469 5.109375v189.148437h20.605469zm0 0" fill="#d1d0cf"/><path d="m0 201.898438v88.992187c0 12.433594 10.175781 22.609375 22.613281 22.609375h12.664063c12.4375 0 22.609375-10.175781 22.609375-22.609375v-103.621094h-43.257813c-8.078125 0-14.628906 6.550781-14.628906 14.628907zm0 0" fill="#72bdf6"/><path d="m20.605469 290.890625v-88.992187c0-8.078126 6.550781-14.628907 14.628906-14.628907h-20.605469c-8.078125 0-14.628906 6.550781-14.628906 14.628907v88.992187c0 12.433594 10.175781 22.609375 22.613281 22.609375 13.886719 0 14.070313.101562 16.632813-.359375-10.558594-1.890625-18.640625-11.171875-18.640625-22.25zm0 0" fill="#4b98d4"/><path d="m57.886719 187.269531v103.621094c0 12.433594 10.175781 22.609375 22.613281 22.609375h12.660156c12.4375 0 22.613282-10.175781 22.613282-22.609375v-103.621094zm0 0" fill="#f45858"/><path d="m115.773438 187.269531v103.621094c0 12.433594 10.175781 22.609375 22.613281 22.609375h12.664062c12.433594 0 22.609375-10.175781 22.609375-22.609375v-103.621094zm0 0" fill="#72bdf6"/><path d="m173.660156 187.269531v103.621094c0 12.433594 10.175782 22.609375 22.613282 22.609375h12.664062c12.433594 0 22.609375-10.175781 22.609375-22.609375v-103.621094zm0 0" fill="#f45858"/><path d="m231.546875 187.269531v103.621094c0 12.433594 10.175781 22.609375 22.613281 22.609375h12.660156c12.4375 0 22.613282-10.175781 22.613282-22.609375v-103.621094zm0 0" fill="#72bdf6"/><path d="m289.433594 187.269531v103.621094c0 12.433594 10.175781 22.609375 22.613281 22.609375h12.664063c12.433593 0 22.609374-10.175781 22.609374-22.609375v-103.621094zm0 0" fill="#f45858"/><path d="m347.320312 187.269531v103.621094c0 12.433594 10.175782 22.609375 22.613282 22.609375h12.664062c12.433594 0 22.609375-10.175781 22.609375-22.609375v-90.898437c0-7.027344-5.695312-12.722657-12.71875-12.722657zm0 0" fill="#72bdf6"/><path d="m288.707031 353.625h-172.203125c-5.015625 0-9.082031 4.066406-9.082031 9.082031v126.550781h190.363281v-126.554687c0-5.011719-4.0625-9.078125-9.078125-9.078125zm0 0" fill="#72bdf6"/><path d="m232.277344 353.625h-115.773438c-5.015625 0-9.082031 4.066406-9.082031 9.082031v126.550781h115.773437v-126.554687c0-5.011719 4.066407-9.078125 9.082032-9.078125zm0 0" fill="#4b98d4"/><path d="m107.421875 362.703125v126.554687h95.183594v-135.632812h-86.101563c-5.015625 0-9.082031 4.066406-9.082031 9.078125zm0 0" fill="#72bdf6"/><path d="m137.105469 353.625h-20.601563c-5.015625 0-9.082031 4.066406-9.082031 9.082031v126.550781h20.605469v-126.554687c0-5.011719 4.066406-9.078125 9.078125-9.078125zm0 0" fill="#4b98d4"/><path d="m405.207031 504.457031v-14.871093c0-4.164063-3.378906-7.542969-7.542969-7.542969h-390.121093c-4.164063 0-7.542969 3.378906-7.542969 7.542969v14.871093c0 4.164063 3.378906 7.542969 7.542969 7.542969h390.121093c4.167969 0 7.542969-3.378906 7.542969-7.542969zm0 0" fill="#525468"/><path d="m397.664062 491.394531h-390.121093c-3.148438 0-5.847657-1.933593-6.972657-4.675781-.367187.882812-.56640575 1.851562-.56640575 2.867188v14.871093c0 4.164063 3.37499975 7.542969 7.53906275 7.542969h390.125c4.164062 0 7.542969-3.378906 7.542969-7.542969v-14.871093c0-1.015626-.203126-1.984376-.570313-2.867188-1.128906 2.742188-3.824219 4.675781-6.976563 4.675781zm0 0" fill="#3e4151"/><path d="m0 271.101562v19.785157c0 12.4375 10.175781 22.613281 22.613281 22.613281h12.664063c12.4375 0 22.609375-10.175781 22.609375-22.613281v-19.785157zm0 0" fill="#f45858"/><path d="m39.246094 313.140625c-10.558594-1.890625-18.640625-11.167969-18.640625-22.25v-19.789063h-20.605469v19.789063c0 12.4375 10.179688 22.609375 22.613281 22.609375 13.425781 0 14.066407.101562 16.632813-.359375zm0 0" fill="#e84949"/><path d="m115.773438 271.101562v19.785157c0 12.4375 10.175781 22.613281 22.613281 22.613281h12.664062c12.433594 0 22.609375-10.175781 22.609375-22.613281v-19.785157zm0 0" fill="#f45858"/><path d="m173.660156 271.101562v19.785157c0 12.4375 10.175782 22.613281 22.613282 22.613281h12.664062c12.433594 0 22.609375-10.175781 22.609375-22.613281v-19.785157zm0 0" fill="#72bdf6"/><path d="m231.546875 271.101562v19.785157c0 12.4375 10.175781 22.613281 22.613281 22.613281h12.660156c12.4375 0 22.613282-10.175781 22.613282-22.613281v-19.785157zm0 0" fill="#f45858"/><path d="m289.433594 271.101562v19.785157c0 12.4375 10.175781 22.613281 22.613281 22.613281h12.664063c12.433593 0 22.609374-10.175781 22.609374-22.613281v-19.785157zm0 0" fill="#72bdf6"/><path d="m347.320312 271.101562v19.785157c0 12.4375 10.175782 22.613281 22.613282 22.613281h12.664062c12.433594 0 22.609375-10.175781 22.609375-22.613281v-19.785157zm0 0" fill="#f45858"/><path d="m57.886719 230.777344h20.605469v28.847656h-20.605469zm0 0" fill="#ea47d7"/><path d="m78.476562 290.890625v-103.621094h-20.589843v103.621094c0 12.433594 10.175781 22.609375 22.613281 22.609375 13.855469 0 14.058594.101562 16.625-.355469-10.5625-1.890625-18.648438-11.171875-18.648438-22.253906zm0 0" fill="#e84949"/><path d="m57.886719 271.101562v19.785157c0 12.4375 10.175781 22.613281 22.613281 22.613281h12.660156c12.4375 0 22.613282-10.175781 22.613282-22.613281v-19.785157zm0 0" fill="#72bdf6"/><path d="m97.125 313.144531c-10.5625-1.890625-18.648438-11.171875-18.648438-22.253906v-19.789063h-20.589843v19.789063c0 12.488281 10.230469 22.609375 22.613281 22.609375 12.808594 0 13.890625.132812 16.625-.355469zm0 0" fill="#4b98d4"/><path d="m194.253906 290.890625v-103.621094h-20.59375v103.621094c0 12.433594 10.175782 22.609375 22.613282 22.609375 13.855468 0 14.0625.101562 16.625-.355469-10.5625-1.890625-18.644532-11.171875-18.644532-22.253906zm0 0" fill="#e84949"/><path d="m212.898438 313.144531c-10.5625-1.890625-18.648438-11.171875-18.648438-22.253906v-19.789063h-20.589844c0 21.222657-1.066406 25.855469 4.507813 33.292969 4.269531 5.699219 10.9375 9.105469 18.105469 9.105469 12.808593 0 13.890624.132812 16.625-.355469zm0 0" fill="#4b98d4"/><path d="m310.023438 290.890625v-103.621094h-20.589844v103.621094c0 12.433594 10.175781 22.609375 22.613281 22.609375 13.855469 0 14.058594.101562 16.625-.355469-10.5625-1.890625-18.648437-11.171875-18.648437-22.253906zm0 0" fill="#e84949"/><path d="m328.671875 313.144531c-10.5625-1.890625-18.648437-11.171875-18.648437-22.253906v-19.789063h-20.589844v19.789063c0 12.488281 10.230468 22.609375 22.613281 22.609375 12.808594 0 13.890625.132812 16.625-.355469zm0 0" fill="#4b98d4"/><path d="m367.910156 290.890625v-103.621094h-20.589844v103.621094c0 12.433594 10.175782 22.609375 22.613282 22.609375 13.855468 0 14.058594.101562 16.625-.355469-10.5625-1.890625-18.648438-11.171875-18.648438-22.253906zm0 0" fill="#4b98d4"/><path d="m386.558594 313.144531c-10.5625-1.890625-18.648438-11.171875-18.648438-22.253906v-19.789063h-20.589844c0 20.96875-1.035156 25.894532 4.507813 33.292969 4.269531 5.699219 10.9375 9.105469 18.105469 9.105469 12.808594 0 13.890625.132812 16.625-.355469zm0 0" fill="#e84949"/><path d="m252.136719 290.890625v-103.621094h-20.589844v103.621094c0 12.433594 10.175781 22.609375 22.613281 22.609375 13.855469 0 14.058594.101562 16.625-.355469-10.5625-1.890625-18.648437-11.171875-18.648437-22.253906zm0 0" fill="#4b98d4"/><path d="m270.785156 313.144531c-10.5625-1.890625-18.648437-11.171875-18.648437-22.253906v-19.789063h-20.589844v19.789063c0 12.40625 10.140625 22.609375 22.613281 22.609375 12.808594 0 13.890625.132812 16.625-.355469zm0 0" fill="#e84949"/><path d="m136.363281 290.890625v-103.621094h-20.589843v103.621094c0 12.433594 10.175781 22.609375 22.613281 22.609375 13.855469 0 14.058593.101562 16.625-.355469-10.5625-1.890625-18.648438-11.171875-18.648438-22.253906zm0 0" fill="#4b98d4"/><path d="m155.011719 313.144531c-10.5625-1.890625-18.648438-11.171875-18.648438-22.253906v-19.789063h-20.589843v19.789063c0 12.394531 10.128906 22.609375 22.613281 22.609375 12.808593 0 13.890625.132812 16.625-.355469zm0 0" fill="#e84949"/><g fill="#a0634a"><path d="m168.027344 64.214844c0 6.621094-5.363282 11.988281-11.984375 11.988281-6.621094 0-11.988281-5.367187-11.988281-11.988281s5.367187-11.988282 11.988281-11.988282c6.621093 0 11.984375 5.367188 11.984375 11.988282zm0 0"/><path d="m261.835938 64.214844c0 6.621094-5.367188 11.988281-11.988282 11.988281s-11.988281-5.367187-11.988281-11.988281 5.367187-11.988282 11.988281-11.988282 11.988282 5.367188 11.988282 11.988282zm0 0"/><path d="m231.320312 82.097656c-7.296874-12.636718-20.695312-21.410156-32.824218-18.761718-26.894532 5.335937-40.582032 47.898437-19.300782 60.1875 5.691407 3.285156 12.605469 3.253906 19.277344.546874 2.863282-1.160156 6.082032-1.160156 8.941406 0 6.675782 2.707032 13.589844 2.738282 19.277344-.546874 11.824219-6.828126 13.894532-25.375 4.628906-41.425782zm0 0"/><path d="m237.996094 37.058594c0 8.027344-6.507813 14.535156-14.535156 14.535156-8.03125 0-14.539063-6.507812-14.539063-14.535156 0-8.03125 6.507813-14.539063 14.539063-14.539063 8.027343 0 14.535156 6.507813 14.535156 14.539063zm0 0"/><path d="m196.96875 37.058594c0 8.027344-6.507812 14.535156-14.539062 14.535156-8.027344 0-14.535157-6.507812-14.535157-14.535156 0-8.03125 6.507813-14.539063 14.535157-14.539063 8.03125 0 14.539062 6.507813 14.539062 14.539063zm0 0"/></g><path d="m164.570312 64.214844c0-2.265625.636719-4.375 1.730469-6.179688-2.101562-3.476562-5.902343-5.808594-10.257812-5.808594-6.621094 0-11.988281 5.367188-11.988281 11.988282s5.367187 11.988281 11.988281 11.988281c4.355469 0 8.15625-2.332031 10.257812-5.808594-1.09375-1.804687-1.730469-3.914062-1.730469-6.179687zm0 0" fill="#915039"/><path d="m258.375 64.214844c0-2.265625.640625-4.375 1.730469-6.179688-2.097657-3.476562-5.902344-5.808594-10.257813-5.808594-6.621094 0-11.988281 5.367188-11.988281 11.988282s5.367187 11.988281 11.988281 11.988281c4.355469 0 8.160156-2.332031 10.257813-5.808594-1.089844-1.804687-1.730469-3.914062-1.730469-6.179687zm0 0" fill="#915039"/><path d="m199.710938 123.523438c-19.058594-11.003907-10.441407-47.847657 13.492187-58.328126-4.75-2.078124-9.746094-2.941406-14.707031-1.859374-26.894532 5.335937-40.582032 47.898437-19.300782 60.1875 5.691407 3.285156 12.605469 3.253906 19.28125.546874.457032-.183593.929688-.332031 1.40625-.457031-.058593-.03125-.117187-.058593-.171874-.089843zm0 0" fill="#915039"/><path d="m229.4375 37.058594c0-4.027344 1.636719-7.667969 4.277344-10.300782-2.628906-2.617187-6.253906-4.238281-10.253906-4.238281-8.03125 0-14.539063 6.507813-14.539063 14.539063 0 8.027344 6.507813 14.535156 14.539063 14.535156 4.003906 0 7.625-1.621094 10.253906-4.238281-2.640625-2.632813-4.277344-6.273438-4.277344-10.296875zm0 0" fill="#915039"/><path d="m188.40625 37.058594c0-4.027344 1.640625-7.667969 4.28125-10.300782-2.628906-2.617187-6.253906-4.238281-10.257812-4.238281-8.027344 0-14.535157 6.507813-14.535157 14.539063 0 8.027344 6.507813 14.535156 14.535157 14.535156 4.003906 0 7.628906-1.621094 10.257812-4.238281-2.640625-2.632813-4.28125-6.273438-4.28125-10.296875zm0 0" fill="#915039"/></svg>